<svg width="40" height="42" viewBox="0 0 40 42" fill="none" xmlns="http://www.w3.org/2000/svg">
<path d="M33.3334 22.75V10.0608C33.3335 9.92261 33.3077 9.78581 33.2573 9.65819C33.207 9.53056 33.1332 9.41462 33.0401 9.317L27.7934 3.808C27.6061 3.61103 27.3519 3.50025 27.0867 3.5H7.66675C7.40153 3.5 7.14718 3.61062 6.95964 3.80754C6.7721 4.00445 6.66675 4.27152 6.66675 4.55V37.45C6.66675 37.7285 6.7721 37.9955 6.95964 38.1925C7.14718 38.3894 7.40153 38.5 7.66675 38.5H23.3334" stroke="white" stroke-width="1.5" stroke-linecap="round" stroke-linejoin="round"/>
<path d="M26.6667 3.5V9.45C26.6667 9.72848 26.7721 9.99555 26.9596 10.1925C27.1472 10.3894 27.4015 10.5 27.6667 10.5H33.3334M26.6667 33.25H36.6667M36.6667 33.25L31.6667 28M36.6667 33.25L31.6667 38.5" stroke="white" stroke-width="1.5" stroke-linecap="round" stroke-linejoin="round"/>
</svg>
