<svg width="55" height="42" viewBox="0 0 55 42" fill="none" xmlns="http://www.w3.org/2000/svg">
<path d="M34.375 5.25H20.625C18.8016 5.25 17.053 5.80312 15.7636 6.78769C14.4743 7.77226 13.75 9.10761 13.75 10.5V17.5H16.0417V10.5C16.0417 9.57174 16.5246 8.6815 17.3841 8.02513C18.2436 7.36875 19.4094 7 20.625 7H34.375C35.5906 7 36.7564 7.36875 37.6159 8.02513C38.4754 8.6815 38.9583 9.57174 38.9583 10.5V33.25C38.9583 34.1783 38.4754 35.0685 37.6159 35.7249C36.7564 36.3813 35.5906 36.75 34.375 36.75H20.625C19.4094 36.75 18.2436 36.3813 17.3841 35.7249C16.5246 35.0685 16.0417 34.1783 16.0417 33.25V26.25H13.75V33.25C13.75 34.6424 14.4743 35.9777 15.7636 36.9623C17.053 37.9469 18.8016 38.5 20.625 38.5H34.375C36.1984 38.5 37.947 37.9469 39.2364 36.9623C40.5257 35.9777 41.25 34.6424 41.25 33.25V10.5C41.25 9.10761 40.5257 7.77226 39.2364 6.78769C37.947 5.80312 36.1984 5.25 34.375 5.25V5.25ZM6.875 21H30.3646L22.9167 15.3125L24.4383 14L34.7508 21.875L24.4383 29.75L22.9167 28.4375L30.3646 22.75H6.875V21Z" fill="white"/>
</svg>
